<?xml version="1.0" encoding="utf-8"?>
<!-- Generator: Adobe Illustrator 24.0.1, SVG Export Plug-In . SVG Version: 6.00 Build 0)  -->
<svg version="1.1" id="Layer_1" xmlns="http://www.w3.org/2000/svg" xmlns:xlink="http://www.w3.org/1999/xlink" x="0px" y="0px"
	 viewBox="0 0 339.8 480.2" style="enable-background:new 0 0 339.8 480.2;" xml:space="preserve">
<style type="text/css">
	.st0{fill:#15775D;stroke:#000000;stroke-width:2;stroke-miterlimit:10;}
	.st1{fill:#00AA83;stroke:#000000;stroke-width:2;stroke-miterlimit:10;}
</style>
<title>TRFO_Plant_Logo</title>
<g id="Layer_2_1_">
	<path class="st0" d="M338.3,198.2c-12-79.8-82.2-132.8-129.8-145c-32-8.2-46.2-36.7-51.1-49.6c0,0,13.8,76.6,16.3,97.9
		s-2.5,47.9,0,82.5c1.2,16,1.6,56,1.5,97.7c37.6,2.2,92.5,5.1,116.1,4.2C328.9,284.7,341.8,222,338.3,198.2z"/>
	<path class="st1" d="M173.8,184.1c-2.5-34.6,2.5-61.2,0-82.5S157.5,3.7,157.5,3.7c-4.9,12.8-19,41.4-51.1,49.6
		c-47.6,12.1-92.8,65.2-104.8,145c-3.6,23.8,9.4,86.5,46.9,87.8c24.7,0.9,83.9-2.3,121.4-4.5l5.3,0.3
		C175.3,240.1,174.9,200.1,173.8,184.1z"/>
	<path d="M158.1,478.3c1.9-9.6,3.7-19.4,5.2-29.2s3-19.6,4.1-29.4l0.8-7.4l0.6-7.3c0.4-4.9,0.6-9.8,0.8-14.8
		c0.4-9.9,0.7-19.8,1-29.8c1-39.8,1.6-79.6,1.9-119.4c0-10,0-19.9,0-29.8s-0.3-19.8-0.8-29.8s-0.5-20.1,0-30s1.1-19.9,1.5-29.8
		c0.2-4.9,0.2-9.9,0-14.8s-0.9-9.8-1.6-14.8c-1.4-9.9-2.9-19.7-4.4-29.5c-3.1-19.7-6.3-39.3-9.6-59c3.7,19.6,7.4,39.1,10.9,58.7
		c1.8,9.8,3.5,19.6,5.1,29.4c0.8,4.9,1.6,9.9,2,14.9s0.4,10,0.4,15c-0.1,10-0.7,19.9-0.8,29.9s0,19.8,0.7,29.7
		c0.7,9.9,1.2,20,1.5,29.9s0.5,19.9,0.7,29.9c0.7,39.8,1,79.7,0.9,119.5c0,10-0.1,19.9-0.3,29.9c-0.1,5-0.2,10-0.5,15.1l-0.5,7.7
		l-0.6,7.5c-0.9,10-2.1,20-3.5,29.9s-2.9,19.8-4.6,29.7L158.1,478.3z"/>
	<path d="M300.4,148.4c-10.6,8.7-9.6,24.7-20.4,33.6c-2.7,2-5.7,3.6-8.8,4.7c-3.1,1.2-6.3,2.1-9.3,3.4c-6.1,2.5-11.7,6-17.4,9.4
		c-2.8,1.7-5.7,3.4-8.7,4.9c-1.5,0.8-3,1.5-4.5,2.2s-3,1.4-4.6,2c-6.1,2.6-12.4,4.8-18.5,7.2c-6.2,2.2-12.2,4.9-18,8
		c-5.7,3-10.9,7-15.3,11.7l-2.2-2c4.7-4.9,10.2-8.9,16.3-12c5.9-3,12.1-5.6,18.4-7.8c6.2-2.3,12.5-4.4,18.6-6.8
		c1.5-0.6,3-1.3,4.5-1.9s3-1.4,4.5-2.1c2.9-1.5,5.8-3.1,8.7-4.7c5.7-3.3,11.5-6.7,17.7-9.2c3.1-1.3,6.3-2.2,9.4-3.3
		c3.1-1,6-2.5,8.7-4.4c2.5-2.1,4.6-4.6,6.2-7.5s3-5.9,4.1-9c1.2-3.1,2.6-6.1,4.2-9C295.7,153,297.8,150.5,300.4,148.4z"/>
	<path d="M255.5,123.3c-1.7,1.6-3.2,3.4-4.6,5.3c-1.3,1.9-2.5,3.9-3.6,6c-2.2,4.1-4.1,8.4-6.4,12.5s-5.3,7.9-8.8,11
		s-7.1,6.1-10.6,9.1c-14.2,12.1-28.8,24-44.8,33.8l-1.5-2.6c16.1-9.3,30.9-20.7,45.4-32.4c3.6-2.9,7.3-5.8,10.8-8.8
		s6.6-6.5,8.9-10.5c2.4-4,4.4-8.2,6.7-12.3c1.1-2,2.4-4,3.8-5.9C252.1,126.6,253.7,124.9,255.5,123.3z"/>
	<path d="M216.1,76.6c-1.5,5.9-3.1,11.8-5.2,17.6c-2,5.8-4.6,11.4-7.8,16.7c-3.2,5.3-7.2,10.1-11.9,14.2c-4.8,4.2-10.3,7.3-16.4,9.1
		l-0.8-2.9c5.8-1.5,11.1-4.2,15.8-8c4.7-3.8,8.8-8.3,12.1-13.3c3.3-5.1,6.1-10.5,8.4-16.2C212.5,88.3,214.4,82.4,216.1,76.6z"/>
	<path d="M113.6,87.7c-1.1,4.2-0.5,8.6,0.6,12.7c1.3,4.1,2.9,8.1,4.9,11.9c3.7,7.7,8.4,15,13.8,21.7c5.4,6.7,11.5,12.7,18.2,18
		s14,9.7,21.8,13.4l-0.9,1.8c-15.6-7.7-29.3-18.8-40-32.5c-5.3-6.8-9.8-14.2-13.4-22.1c-1.9-3.9-3.4-7.9-4.6-12.1
		C112.9,96.4,112.4,91.9,113.6,87.7z"/>
	<path d="M88.9,160c5.9,6.1,13.1,10.6,20.6,14.5c7.5,3.9,15.3,7.2,22.8,11.2c15,8,29.1,17.6,41.9,28.7l-1.3,1.5
		c-12.5-11.3-26.3-21.2-41-29.4c-7.4-4.1-15.1-7.6-22.5-11.7S94.7,166.3,88.9,160z"/>
	<path d="M51,187.4c9.4,8.1,18.9,16.1,28.6,24c4.8,3.9,9.7,7.9,14.5,11.7c4.9,3.9,9.7,7.8,14.7,11.4s10.4,6.7,16,9.2
		c5.6,2.5,11.5,4.8,17.2,7.2c11.6,4.8,22.6,10.9,32.8,18.3l-1.8,2.4c-9.9-7.4-20.6-13.7-31.9-18.7c-5.7-2.5-11.5-4.8-17.1-7.5
		c-5.7-2.7-11.1-5.9-16.1-9.7c-5-3.8-9.8-7.8-14.6-11.7s-9.6-8-14.3-12C69.6,203.9,60.2,195.7,51,187.4z"/>
	<path d="M299.1,217.3c-11.1,2.5-22.3,5-32.9,9.2c-5.3,2.1-10.4,4.6-15.1,7.7c-4.8,3-9.4,6.5-14.4,9.2c-10,5.6-20.9,9.4-31.5,13.5
		s-21.2,8.4-30.3,14.9l-1.7-2.5c9.6-6.6,20.5-10.7,31.2-14.6S226,247.3,236,242c5-2.6,9.7-5.9,14.5-8.9c4.9-3,10.1-5.5,15.5-7.5
		C276.7,221.8,287.9,219.5,299.1,217.3z"/>
</g>
</svg>
